# xmcd
#
# Track frame offsets: 
#        150
#        1037
#        11692
#        32001
#        33460
#        43066
#        52090
#        65625
#        82019
#        82853
#        93412
#        112103
#        129101
#        139516
#        162488
#        179352
#        192269
#        232556
#        251426
#        252855
#        265480
#        277781
#        295991
#        307904
#        311790
#
# Disc length: 4563 seconds
#
# Revision: 2
# Processed by: cddbd v1.5.2PL0 Copyright (c) Steve Scherf et al.
# Submitted via: ExactAudioCopy v0.99pb5
#
DISCID=4d11d119
DTITLE=Joe Strummer - The Future is Unwritten (OST)
DYEAR=2007
DGENRE=Rock
TTITLE0=Joe Strummer - Punk Rock Warlord
TTITLE1=The Clash - White Riot [Alternate Demo Mix]
TTITLE2=Rachid Taha - Rock the Casbah
TTITLE3=BBC World Service
TTITLE4=Elvis Presley - Crawfish
TTITLE5=Tim Hardin - Black Sheep Boy
TTITLE6=MC5 - Kick Out the Jams
TTITLE7=The 101ers - Keys to Your Heart
TTITLE8=Joe Strummer - Mick and Paul Were Different
TTITLE9=The Clash - I'm So Bored with the U.S.A.
TTITLE10=U-Roy - Natty Rebel
TTITLE11=The Clash - Armagideon Time
TTITLE12=Eddie Cochrane - Nervous Breakdown
TTITLE13=The Clash - (In The) Pouring Rain
TTITLE14=Joe Strummer - Omotepe
TTITLE15=Andres Landeros - Martha Cecilia
TTITLE16=Ernest Ranglin - Minuet
TTITLE17=Latino Rockabilly War - Trash City
TTITLE18=Topper Headon - I Called Him Woody
TTITLE19=Woody Guthrie - Ranger's Command
TTITLE20=Bob Dylan - Corrina, Corrina
TTITLE21=Joe Strummer and The Mescaleros - Johnny Appleseed
TTITLE22=Nina Simone - To Love Somebody
TTITLE23=Joe Strummer - Without People, You're Nothing
TTITLE24=Joe Strummer and The Mescaleros - Willesden to Cricklewood
EXTD=
EXTT0=
EXTT1=
EXTT2=
EXTT3=
EXTT4=
EXTT5=
EXTT6=
EXTT7=
EXTT8=
EXTT9=
EXTT10=
EXTT11=
EXTT12=
EXTT13=
EXTT14=
EXTT15=
EXTT16=
EXTT17=
EXTT18=
EXTT19=
EXTT20=
EXTT21=
EXTT22=
EXTT23=
EXTT24=
PLAYORDER=
